HIERARCHY
ROOT joint_Root
{
	OFFSET 0.0 0.0 0.0
	CHANNELS 6 Xposition Yposition Zposition Zrotation Xrotation Yrotation 
	JOINT Hips
	{
		OFFSET 4.5925 91.4895 -427.239
		CHANNELS 6 Xposition Yposition Zposition Zrotation Xrotation Yrotation 
		JOINT Spine
		{
			OFFSET 15.7357 0.0 0.0
			CHANNELS 6 Xposition Yposition Zposition Zrotation Xrotation Yrotation 
			JOINT Chest
			{
				OFFSET 8.98455 -0.406207 0.0
				CHANNELS 6 Xposition Yposition Zposition Zrotation Xrotation Yrotation 
				JOINT Neck
				{
					OFFSET 16.3773 0.0 0.0
					CHANNELS 6 Xposition Yposition Zposition Zrotation Xrotation Yrotation 
					JOINT Head
					{
						OFFSET 6.45672 0.0 0.0
						CHANNELS 6 Xposition Yposition Zposition Zrotation Xrotation Yrotation 
						End Site
						{
							OFFSET 0.0 0.0 0.0
						}
					}
				}
				JOINT Shoulder_L
				{
					OFFSET 12.9942 -0.242716 4.98039
					CHANNELS 6 Xposition Yposition Zposition Zrotation Xrotation Yrotation 
					JOINT UpperArm_L
					{
						OFFSET 5.34809 0.0 0.0
						CHANNELS 6 Xposition Yposition Zposition Zrotation Xrotation Yrotation 
						JOINT LowerArm_L
						{
							OFFSET 24.3286 1.87007e-05 0.0
							CHANNELS 6 Xposition Yposition Zposition Zrotation Xrotation Yrotation 
							JOINT Hand_L
							{
								OFFSET 22.2916 0.0 0.0
								CHANNELS 6 Xposition Yposition Zposition Zrotation Xrotation Yrotation 
								End Site
								{
									OFFSET 0.0 0.0 0.0
								}
							}
						}
					}
				}
				JOINT Shoulder_R
				{
					OFFSET 12.9945 -0.242716 -4.98039
					CHANNELS 6 Xposition Yposition Zposition Zrotation Xrotation Yrotation 
					JOINT UpperArm_R
					{
						OFFSET -5.34813 0.0 0.0
						CHANNELS 6 Xposition Yposition Zposition Zrotation Xrotation Yrotation 
						JOINT LowerArm_R
						{
							OFFSET -24.3289 0.000322201 0.0
							CHANNELS 6 Xposition Yposition Zposition Zrotation Xrotation Yrotation 
							JOINT Hand_R
							{
								OFFSET -22.2915 -0.000108084 0.0
								CHANNELS 6 Xposition Yposition Zposition Zrotation Xrotation Yrotation 
								End Site
								{
									OFFSET 0.0 0.0 0.0
								}
							}
						}
					}
				}
			}
		}
		JOINT UpperLeg_L
		{
			OFFSET -2.19248 -6.46944 0.0
			CHANNELS 6 Xposition Yposition Zposition Zrotation Xrotation Yrotation 
			JOINT LowerLeg_L
			{
				OFFSET 39.0811 0.0 -1.23785e-05
				CHANNELS 6 Xposition Yposition Zposition Zrotation Xrotation Yrotation 
				JOINT Foot_L
				{
					OFFSET 40.9854 0.0 -1.26872e-05
					CHANNELS 6 Xposition Yposition Zposition Zrotation Xrotation Yrotation 
					JOINT Toes_L
					{
						OFFSET 11.7543 0.0 0.0
						CHANNELS 6 Xposition Yposition Zposition Zrotation Xrotation Yrotation 
						End Site
						{
							OFFSET 0.0 0.0 0.0
						}
					}
				}
			}
		}
		JOINT UpperLeg_R
		{
			OFFSET -2.19251 6.46944 0.0
			CHANNELS 6 Xposition Yposition Zposition Zrotation Xrotation Yrotation 
			JOINT LowerLeg_R
			{
				OFFSET -39.0811 -0.00228153 -0.0401928
				CHANNELS 6 Xposition Yposition Zposition Zrotation Xrotation Yrotation 
				JOINT Foot_R
				{
					OFFSET -40.9854 0.0 0.0
					CHANNELS 6 Xposition Yposition Zposition Zrotation Xrotation Yrotation 
					JOINT Toes_R
					{
						OFFSET -11.7543 0.0 0.0
						CHANNELS 6 Xposition Yposition Zposition Zrotation Xrotation Yrotation 
						End Site
						{
							OFFSET 0.0 0.0 0.0
						}
					}
				}
			}
		}
	}
}
MOTION
Frames:	4
Frame Time:	0.0333333
0.000000 0.000000 0.000000 0.000000 0.000000 -0.000000 1.842150 90.321400 -0.536706 90.019200 -4.283440 13.308800 15.735700 0.000005 -0.000001 101.264000 83.465100 -104.089000 8.984550 -0.406207 -0.000000 5.126980 2.612430 -5.761520 16.377300 -0.000001 -0.000001 24.250100 1.536210 -1.256770 6.456720 -0.000001 -0.000000 12.494900 2.204250 -12.005700 12.994200 -0.242716 4.980390 -91.696200 5.175360 -71.825300 5.348090 -0.000007 -0.000001 -62.485100 32.976400 -11.665700 24.328600 0.000019 0.000005 8.583620 25.796700 -19.129200 22.291600 -0.000001 0.000005 9.536330 5.289600 0.362266 12.994500 -0.242716 -4.980390 90.431700 -1.699520 -75.743500 -5.348130 -0.000001 -0.000004 -58.012100 -45.965000 -78.352600 -24.328900 0.000322 -0.000009 5.661730 2.227740 -68.595500 -22.291500 -0.000108 -0.000004 24.136100 5.437450 -4.196500 -2.192480 -6.469440 -0.000000 -175.796000 -14.361300 3.325960 39.081100 -0.000007 -0.000012 -0.138537 0.217888 32.449100 40.985400 -0.000006 -0.000013 1.926010 4.188390 -72.378800 11.754300 -0.000000 0.000003 -0.000166 -0.001582 -16.637500 -2.192510 6.469440 -0.000001 169.862000 20.762400 -175.555000 -39.081100 -0.002282 -0.040193 -0.185091 0.299871 32.138500 -40.985400 0.000008 0.000006 1.568270 12.028100 -71.738700 -11.754300 -0.000006 -0.000006 -0.003836 -0.049725 -18.595700
0.000000 0.000000 0.000000 0.000000 0.000000 -0.000000 1.841690 90.298900 -0.469907 90.021000 -4.194420 13.387400 15.735700 0.000005 -0.000001 101.398000 83.376900 -104.275000 8.984550 -0.406207 -0.000000 5.297290 2.673790 -5.872660 16.377300 -0.000001 -0.000001 24.858300 1.435400 -1.121450 6.456720 -0.000001 -0.000000 12.725800 1.839540 -11.867800 12.994200 -0.242716 4.980390 -91.746900 5.274610 -71.646500 5.348090 -0.000007 -0.000001 -62.389300 32.999300 -11.590900 24.328600 0.000019 0.000005 8.619460 26.039600 -19.049600 22.291600 -0.000001 0.000005 9.521460 5.290140 0.347031 12.994500 -0.242716 -4.980390 90.411100 -1.601850 -75.604100 -5.348130 -0.000001 -0.000004 -58.066300 -45.936400 -78.292400 -24.328900 0.000322 -0.000009 5.650930 2.219650 -68.628900 -22.291500 -0.000108 -0.000004 24.225300 5.437790 -4.208720 -2.192480 -6.469440 -0.000000 -175.780000 -14.299900 3.412210 39.081100 -0.000007 -0.000012 -0.140383 0.220138 32.526100 40.985400 -0.000006 -0.000013 1.931320 4.210150 -72.463700 11.754300 -0.000000 0.000003 -0.000192 -0.001786 -16.645000 -2.192510 6.469440 -0.000001 169.797000 20.766200 -175.435000 -39.081100 -0.002282 -0.040193 -0.186481 0.301261 32.208900 -40.985400 0.000008 0.000006 1.573030 11.975700 -71.836100 -11.754300 -0.000006 -0.000006 -0.003820 -0.049560 -18.589000
0.000000 0.000000 0.000000 0.000000 0.000000 -0.000000 1.839580 90.277800 -0.387788 90.030300 -4.153970 13.548100 15.735700 0.000005 -0.000001 101.569000 83.253900 -104.500000 8.984550 -0.406207 -0.000000 5.534460 2.756330 -5.990110 16.377300 -0.000001 -0.000001 25.501300 1.320680 -0.998823 6.456720 -0.000001 -0.000000 12.872200 1.544730 -11.746700 12.994200 -0.242716 4.980390 -91.771000 5.307180 -71.516600 5.348090 -0.000007 -0.000001 -62.355700 33.067400 -11.502600 24.328600 0.000019 0.000005 8.579540 26.022300 -18.977300 22.291600 -0.000001 0.000005 9.482050 5.290850 0.327289 12.994500 -0.242716 -4.980390 90.385800 -1.493130 -75.510100 -5.348130 -0.000001 -0.000004 -58.120100 -45.909300 -78.227800 -24.328900 0.000322 -0.000009 5.616350 2.202980 -68.655300 -22.291500 -0.000108 -0.000004 24.246400 5.439220 -4.258570 -2.192480 -6.469440 -0.000000 -175.749000 -14.246700 3.608420 39.081100 -0.000007 -0.000012 -0.138800 0.217223 32.577800 40.985400 -0.000006 -0.000013 1.933070 4.225180 -72.548500 11.754300 -0.000000 0.000003 -0.000170 -0.001611 -16.638600 -2.192510 6.469440 -0.000001 169.674000 20.815500 -175.213000 -39.081100 -0.002282 -0.040193 -0.186048 0.299838 32.272300 -40.985400 0.000008 0.000006 1.613380 12.000300 -71.940300 -11.754300 -0.000006 -0.000006 -0.003809 -0.049436 -18.584000
0.000000 0.000000 0.000000 0.000000 0.000000 -0.000000 1.830740 90.259700 -0.317189 90.005600 -4.170930 13.639400 15.735700 0.000005 -0.000001 101.688000 83.154600 -104.648000 8.984550 -0.406207 -0.000000 5.726220 2.819190 -6.055500 16.377300 -0.000001 -0.000001 26.063100 1.233930 -0.928126 6.456720 -0.000001 -0.000000 13.075600 1.294140 -11.680700 12.994200 -0.242716 4.980390 -91.797500 5.350830 -71.400500 5.348090 -0.000007 -0.000001 -62.353100 33.128500 -11.312600 24.328600 0.000019 0.000005 8.622620 26.073900 -19.034500 22.291600 -0.000001 0.000005 9.416020 5.290930 0.325268 12.994500 -0.242716 -4.980390 90.369900 -1.429090 -75.487600 -5.348130 -0.000001 -0.000004 -58.188300 -45.878600 -78.189100 -24.328900 0.000322 -0.000009 5.706270 2.236410 -68.673400 -22.291500 -0.000108 -0.000004 24.256000 5.438030 -4.217120 -2.192480 -6.469440 -0.000000 -175.664000 -14.259600 3.743660 39.081100 -0.000007 -0.000012 -0.146389 0.228600 32.634500 40.985400 -0.000006 -0.000013 1.920510 4.237620 -72.636500 11.754300 -0.000000 0.000003 -0.000193 -0.001795 -16.645300 -2.192510 6.469440 -0.000001 169.636000 20.832200 -175.068000 -39.081100 -0.002282 -0.040193 -0.187483 0.301600 32.316000 -40.985400 0.000008 0.000006 1.681400 11.997800 -72.034800 -11.754300 -0.000006 -0.000006 -0.003892 -0.050310 -18.619500
